/* XPM */
static char *_8873961bd7947c88900e4c3b3ee7d6dDo78SA3sie2Zdl5y[] = {
/* columns rows colors chars-per-pixel */
"32 32 5 1 ",
"  c #533D27",
". c #4C3827",
"X c #443326",
"o c #5C4429",
"O c #372A24",
/* pixels */
"Xo.oooo oooo.X.oo  o. ......XXOO",
"Xo    o   .....  .  . . .     OO",
"O   ..XX...X..XXXX...X.X..... OO",
"..OO. . .OXOOXX.X...XXXOOXX... .",
"   X .oooXO.     o.OX o.X  oo   ",
"..OO.O . o.oo       .X  o  o  .X",
"  XX . oooo       ....ooo   o   ",
"XXXOOOX..OOXX.XXXXXXXX.XXXXXXXX.",
"..XXOX...XO oo   .......  . O.o ",
"  ..X    X oXOX ..          .oo ",
" ooo     OOo o      ooo oo  Xooo",
" ....... X   o ........... ..oo.",
".......XXX.XXOXXXXXXXXX..XX.OOO.",
" o oooo o     o     o  oo    OO ",
".OX...X.  .  o    . O.X.XX  o OO",
"o oo  . o .  o      . ..   ooOO ",
" ...  ......XX..XXXXXXX.... XOO ",
".XXX. .  XO o OOOX o.X...OOO...X",
" ooooo ooXO o X.  oo o . OO.  oo",
". oo     OOOXOX  o  ...OOOOOX...",
"       ooOO  oo         .OO.   .",
"XX.XX..X.OO.X..XXXXXXXXXXOOXX.XX",
"  X.O    XXXXX  o   .  ..XXOoo..",
"X.X.O..oo.    ..o ..  oOO. X.  .",
"  o.O ooo. oo          X..oXXo  ",
".XXOOX ..XX..X. XXXXXXXXOO....XX",
"o ooo.  ..OXXOo o   o oo..XOo  o",
".o   .    X.XO.XX.o       XO..O.",
"X .  .X.  ..XOOXX o.X     XOo .X",
" ....... . .XOO.  .XXOX.. XO oo.",
"OX....XXXXX. XX.XXXXXXXXXX.XX.XO",
"Xooooo     oo oo ooo      o  oXO"
};
