/* XPM */
static char *_f0528a2230e4d0af34f65fa836ff723kWI2tFXqtOXlYGXF[] = {
/* columns rows colors chars-per-pixel */
"96 144 11 1 ",
"  c None",
". c #6C3C4A",
"X c #354048",
"o c #4F5150",
"O c #484562",
"+ c #606260",
"@ c #AB5A53",
"# c #748C7D",
"$ c #C68862",
"% c #AEC3BE",
"& c #E4E8DA",
/* pixels */
"                                                                                                ",
"                                                                                                ",
"                                                                                                ",
"                                                                                                ",
"                                                                                                ",
"                                                                                                ",
"                                              OOO                                               ",
"               OOO                          XO#++OX                            OOO              ",
"             XO#++OX                       X+###+++X                         XO#++OX            ",
"            X+###+++X                     X+####+++oX                       X+###+++X           ",
"           X+####+++oX                    O#####++++O                      X+####+++oX          ",
"           O#####++++O                    O##+++++++O                      O#####++++O          ",
"           O##+++++++O                   Oo+OXXXXXO+oO                     O##+++++++O          ",
"          Oo+OXXXXXO+oO                  OoOX+###+XOoO  ..                Oo+OXXXXXO+oO         ",
"          OoOX+###+XOoO  ..              XoX+#####+XoX .$OO               OoOX+###+XOoO  ..     ",
"          XoX+#####+XoX .$OO             XO#XO%%%OX#OX.$#&%o              XoX+#####+XoX .$OO    ",
"          XO#XO%%%OX#OX.$#&%o            XO%OX&&&XO%O.$O&&&%o             XO#XO%%%OX#OX.$#&%o   ",
"          XO%OX&&&XO%O.$O&&&%o           XO#%%&&&%%#.$O#%&&&#             XO%OX&&&XO%O.$O&&&%o  ",
"          XO#%%&&&%%#.$O#%&&&#           XoX+%&&&%+.$@.O#%&&%o            XO#%%&&&%%#.$O#%&&&#  ",
"          XoX+%&&&%+.$@.O#%&&%o          X+oO&+&+&.$@X  O#&&&o            XoX+%&&&%+.$@.O#%&&%o ",
"          X+oO&+&+&.$@X  O#&&&o          Oo+XXOOOXXXXO   O%&&o            X+oO&+&+&.$@X  O#&&&o ",
"          Oo+XXOOOXXXXO   O%&&o         XOOo+++XXO++oOX  O#&&o            Oo+XXOOOXXXXO   O%&&o ",
"         XOOo+++XXO++oOX  O#&&o         XXOOOooXo+++++X   O&&O           XOOo+++XXO++oOX  O#&&o ",
"         XXOOOooXo+++++X   O&&O         OoOXXX.X+++++oO   O&%O           XXOOOooXo+++++X   O&&O ",
"         OoOXXX.X+++++oO   O&%O         O++OX.$@X+++ooX   O&O            OoOXXX.X+++++oO   O&%O ",
"         O++OX.$@X+++ooX   O&O         Oo++OX$@XoXXXXX    OO             O++OX.$@X+++ooX   O&O  ",
"        Oo++OX$@XoXXXXX    OO          Oo++oX@X++oOXX                   Oo++OX$@XoXXXXX    OO   ",
"        Oo++oX@X++oOXX                 Xo++oXX+++oOX                    Oo++oX@X++oOXX          ",
"        Xo++oXX+++oOX                   X++oXoooooOX                    Xo++oXX+++oOX           ",
"         X++oXoooooOX                   .XXXXoooooOX                     X++oXoooooOX           ",
"         .XXXXooooXXX                  .$@XOOoooooOOX                    .XXXXooooOOX           ",
"        .$@XOOoooOOXXX                .$@XXOoooooooOXX                  .$@XOOoooooOXX          ",
"       .$@X+++ooOOXOOXX              .$@XXo+ooooooo+oXX                .$@XOXOOoo+++OXX         ",
"      .$@XXOOo+++ooOXXX              ..XXXXO+++++++OXXX               .$@XXOoo+++oOOXXX         ",
"      ..XXXXXXXXXXXXXX                   XXXXXXXXXXXXX                ..XXXXXXXXXXXXXX          ",
"           XXXXXXXXX                       XXXXXXXXX                       XXXXXXXXX            ",
"                                                                                                ",
"                                                                                                ",
"                                                                                                ",
"                                                                                                ",
"                                                                                                ",
"                                                                                                ",
"                                             OOOO                                               ",
"             OOOO                           X+##+OO                          OOOO               ",
"            X+##+OO                        O######+O                        X+##+OO             ",
"           O######+O                      O+#######+O                      O######+O            ",
"          O+#######+O                     X#########o                     O+#######+O           ",
"          X#########o                     X+++######+O                    X#########o           ",
"          X+++######+O                    XoXXXO+##++O                    X+++######+O          ",
"          XoXXXO+##++O                    XX##+XO++++oX ..                XoXXXO+##++O          ",
"          XX##+XO++++oX ..                XO###+Xo++ooX.$OO               XX##+XO++++oX ..      ",
"          XO###+Xo++ooX.$OO                O%%OX#Ooooo.$#&%o              XO###+Xo++ooX.$OO     ",
"           O%%OX#Ooooo.$#&%o               O&&XO%OooO.$O&&&%o              O%%OX#Ooooo.$#&%o    ",
"           O&&XO%OooO.$O&&&%o              O&&%%#XOO.$O#%&&&#              O&&XO%OooO.$O&&&%o   ",
"           O&&%%#XOO.$O#%&&&#              O&&%+XXO.$@.O#%&&%o             O&&%%#XOO.$O#%&&&#   ",
"           O&&%+XXO.$@.O#%&&%o             X&+&OXO.$@X  O#&&&o             O&&%+XXO.$@.O#%&&%o  ",
"           X&+&OXO.$@X  O#&&&o             XOXXXXXXOX    O%&&o             X&+&OXO.$@X  O#&&&o  ",
"           XOXXXXXXOX    O%&&o              XXXO++oOX    O#&&o             XOXXXXXXOX    O%&&o  ",
"            XXXO++oOX    O#&&o             X+Xo+++++X     O&&O              XXXO++oOX    O#&&o  ",
"           X+Xo+++++X     O&&O             OOX+++++oO     O&%O             X+Xo+++++X     O&&O  ",
"           OOX+++++oO     O&%O            XOO.X+++ooX     O&O              OOX+++++oO     O&%O  ",
"          XOO.X+++ooX     O&O             Oo.$@XXXXX      OO              XOO.X+++ooX     O&O   ",
"          Oo.$@XXXXX      OO             XOoO@X+oOXX                      Oo.$@XXXXX      OO    ",
"         XOoO@X+oOXX                     XoooX+ooOOX                     XOoO@X+oOXX            ",
"         XoooX+ooOOX                     .OoXooooOOX                     XoooX+ooOOX            ",
"         .OoXooooOOX                    .$XXXooooOOX                     .OoXooooOOX            ",
"        .$XXXooooOOXX                  .$@XXOooooOOXX                   .$XXXooooooXX           ",
"       .$@XXOoooOOOOXX                .$@XXOOooooOOOXX                 .$@XXOOooooO++X          ",
"      .$@XXoO++oOOOoOXX              .$@XXo+ooooooo+oXX               .$@XOoOOOoo++OXXX         ",
"     .$@XXXOoOO++ooOXXX              ..XXXXO+++++++OXXX              .$@XXXXOoo++OXXXXX         ",
"     ..X XXXXXXXXXXXXX                   XXXXXXXXXXXXX               ..X XXXXXXXXXXXXX          ",
"           XXXXXXXXX                       XXXXXXXXX                       XXXXXXXXX            ",
"                                                                                                ",
"                                                                                                ",
"                                                                                                ",
"                                                                                                ",
"                                                                                                ",
"                                                                                                ",
"                                              OOOO                                              ",
"              OOOO                          OO+##+X                           OOOO              ",
"            OO+##+X                        O+######O                        OO+##+X             ",
"           O+######O                      O+#######+O                      O+######O            ",
"          O+#######+O                     o#########X                     O+#######+O           ",
"          o#########X                    O+######+++X                     o#########X           ",
"         O+######+++X                    O++##+OXXXoX                    O+######+++X           ",
"         O++##+OXXXoX                .. Xo++++OX+##XX                    O++##+OXXXoX           ",
"     .. Xo++++OX+##XX               OO$.Xoo++oX+###OX                .. Xo++++OX+##XX           ",
"    OO$.Xoo++oX+###OX              o%&#$.ooooO#XO%%O                OO$.Xoo++oX+###OX           ",
"   o%&#$.ooooO#XO%%O              o%&&&O$.OooO%OX&&O               o%&#$.ooooO#XO%%O            ",
"  o%&&&O$.OooO%OX&&O              #&&&%#O$.OOX#%%&&O              o%&&&O$.OooO%OX&&O            ",
"  #&&&%#O$.OOX#%%&&O             o%&&%#O.@$.OXX+%&&O              #&&&%#O$.OOX#%%&&O            ",
" o%&&%#O.@$.OXX+%&&O             o&&&#O  X@$.OXO&+&X             o%&&%#O.@$.OXX+%&&O            ",
" o&&&#O  X@$.OXO&+&X             o&&%O    XOXXXXXXOX             o&&&#O  X@$.OXO&+&X            ",
" o&&%O    XOXXXXXXOX             o&&#O    XOo++OXXX              o&&%O    XOXXXXXXOX            ",
" o&&#O    XOo++OXXX              O&&O     X+++++oX+X             o&&#O    XOo++OXXX             ",
" O&&O     X+++++oX+X             O%&O     Oo+++++XOO             O&&O     X+++++oX+X            ",
" O%&O     Oo+++++XOO              O&O     Xoo+++X.OOX            O%&O     Oo+++++XOO            ",
"  O&O     Xoo+++X.OOX              OO      XXXXX@$.oO             O&O     Xoo+++X.OOX           ",
"   OO      XXXXX@$.oO                      XXOo+X@OoOX             OO      XXXXX@$.oO           ",
"           XXOo+X@OoOX                     XOOoo+XoooX                     XXOo+X@OoOX          ",
"           XOOoo+XoooX                     XOOooooXoO.                     XOOoo+XoooX          ",
"           XOOooooXoO.                     XOOooooXXX$.                    XOOooooXoO.          ",
"          XXooooooXXX$.                   XXOOooooOXX@$.                  XXOOooooXXX$.         ",
"         X++OooooOOXX@$.                 XXOOOooooOOXX@$.                XXOOOOoooOXX@$.        ",
"        XXXO++ooOOOoOX@$.               XXo+ooooooo+oXX@$.              XXOoOOOo++OoXX@$.       ",
"        XXXXXO++ooOXXXX@$.              XXXO+++++++OXXXX..              XXXOoo++OOoOXXX@$.      ",
"         XXXXXXXXXXXXX X..               XXXXXXXXXXXXX                   XXXXXXXXXXXXX X..      ",
"           XXXXXXXXX                       XXXXXXXXX                       XXXXXXXXX            ",
"                                                                                                ",
"                                                                                                ",
"                                                                                                ",
"                                                                                                ",
"                                                                                                ",
"                                                                                                ",
"                                              OOO                                               ",
"              OOO                           XO++oOX                           OOO               ",
"            XO++oOX                        X+###++oX                        XO++oOX             ",
"           X+###++oX                      X+####+++oX                      X+###++oX            ",
"          X+####+++oX                     O#####+++oO                     X+####+++oX           ",
"          O#####+++oO                     O#####+++oO                     O#####+++oO           ",
"          O#####+++oO                    OX####++++oXO                    O#####+++oO           ",
"         OX####++++oXO               ..  OX##+++++++XO                   OX####++++oXO          ",
"     ..  OX##+++++++XO              OO@. Oo+oo+++oo+oO               ..  OX##+++++++XO          ",
"    OO@. Oo+oo+++oo+oO             o%%#@.XoooooooooooX              OO@. Oo+oo+++oo+oO          ",
"   o%%#@.XoooooooooooX            o%&%%O@XoooooooooooX             o%%#@.XoooooooooooX          ",
"  o%&%%O@XoooooooooooX            #&%%%#OXOoooooooooOX            o%&%%O@XoooooooooooX          ",
"  #&%%%#OXOoooooooooOX           o%&%%#O.XOOoooooooOOX            #&%%%#OXOoooooooooOX          ",
" o%&%%#O.XOOoooooooOOX           o&%%#O  OXOOOOOOOOOXO           o%&%%#O.XOOoooooooOOX          ",
" o&%%#O  OXOOOOOOOOOXO           o&%%O   Oo+oOOOOOo+oO           o&%%#O  OXOOOOOOOOOXO          ",
" o&%%O   Oo+oOOOOOo+oO           o&%#O  XOOo+++++++oOOX          o&%%O   Oo+oOOOOOo+oO          ",
" o&%#O  XOOo+++++++oOOX          O&%O   XXOOOo+++oOOOXX          o&%#O  XOOo+++++++oOOX         ",
" O&%O   XXOOOo+++oOOOXX          O%%O  OOoOXXOOoOOXXOoO          O&%O   XXOOOo+++oOOOXX         ",
" O%%O  OOoOXXOOoOOXXOoO           O%O  O++oXXOOOOOXO++O          O%%O  OOoOXXOOoOOXXOoO         ",
"  O%O  O++oXXOOOOOXO++O            OO  O++oXXoooooXO++oO          O%O  O++oXXOOOOOXO++O         ",
"   OO  O++oXXoooooXO++oO               Xo+OXX+++++Xo++oO           OO  O++oXXoooooXO++oO        ",
"       Xo+OXX+++++Xo++oO                XoXXO+++++Xo++oX               Xo+OXX+++++Xo++oO        ",
"        XoXXO+++++Xo++oX                 XXOOo+++oXo++X                 XoXXO+++++Xo++oX        ",
"         XXOOo+++oXo++X                   XOOoooooXXXX.                  XXOOo+++oXo++X         ",
"          XOOoooooXXXX.                   XOOoooooOOX.@.                  XOOoooooXXXX.         ",
"         XXOoooooOOXX.@.                 XXOoooooooOXX.@.                XXXOOoooooOX.@.        ",
"        XXO+++ooOOXOOX.@.               XXo+ooooooo+oXX.@.              XXOOXOOoo+++OX.@.       ",
"        XXXOOo+++ooOXXX.@.              XXXO+++++++OXXXX..              XXXOoo+++oOOXXX.@.      ",
"         XXXXXXXXXXXXXXX..               XXXXXXXXXXXXX                   XXXXXXXXXXXXXXX..      ",
"           XXXXXXXXX                       XXXXXXXXX                       XXXXXXXXX            "
};
