/* XPM */
static char *_d6a4c54b4d44544e5a9ea283e0cfe35ZwH55Mcdkb8uzLsH[] = {
/* columns rows colors chars-per-pixel */
"32 32 11 1 ",
"  c gray34",
". c #555555",
"X c gray24",
"o c gray28",
"O c #4C4C4C",
"+ c #5D5D5D",
"@ c #515151",
"# c gray26",
"$ c gray20",
"% c #646464",
"& c gray43",
/* pixels */
"+%+ o##X %+ o##X%++.##X#&++.###$",
"%+     O%+    .O&     ..%      X",
"@ ..   oO ..  .X....  @# ...   $",
"X@@@OOO$X@@@OOo$o@@@OO#$@@@OOOo$",
"#X#Xo @O#X#X@.@O#X#X@.@oXXXX @@O",
" ..@+% + . O&+++ . O&++ ...@&+++",
".. O@ .... o  .... o  .....o+...",
"@@@XX...@@O$o..@@@O$o..@@@o$@..@",
"oOOoXXXXo@o#XXX$OOo#XXXX@OoXXXX$",
"&%++ ..O%%++ ..O&+++ .@.&+++...X",
"  .... o  .....o+.....@O+..... $",
"o ...@@X# ...@@$@...@@o$....@@@$",
"$XXXXooXXXXXXo#XXXXX#o#X#XXXoo#$",
".@@O+&++ @@O+&++.@@o&%++@@@O&+++",
".. O@ .... O@ .... o+......o+...",
"...o#   ...o#   ...XO   ..@$    ",
"X##X$##XX##$$##X###$$##X##X$X##X",
"%&+++OOo%&++@OOo&%++OOOo&%++OOOX",
"+ ...  O+ ...  o%....  o%....  X",
"@      #O     .X.     .X.     .$",
"$ooo###$$ooo###$Xoo####$Xoo####$",
"Ooo#.&++.oo#.&+ Ooo#%%+ Oooo&+++",
"   @ +.    @ +.    O% .   .O%.  ",
"   OO+     OO+     #      @#+.  ",
"#oo$$OOOooo$$OOOoo#$#OOOooX$oOOo",
" %  O##X %  O##X % .o##X % @###$",
"%+     O%+     O%+     O%+     X",
".      #@      #@      #@     .$",
"Xooo###$$ooo###$$oo####$$oo####$",
"Ooo#.&++@oo#.&++@ooX%%++@oo#&+++",
"   O.+.    O.+.    o% .   .o%.  ",
"OOOX# ..OOOX# ..@OO$@ ..OOo$ ..."
};
